<svg width="24" height="24" viewBox="0 0 24 24" fill="#DDDDDD" xmlns="http://www.w3.org/2000/svg"><g clip-path="url(#clip0_18_5008)"><path d="M0 10H12.25L11.1358 22.5784L6.11158 24L1.11592 22.5778L0 10ZM4.10142 15.6875L3.96608 14.102L9.83383 14.1037L9.968 12.5742L2.282 12.5725L2.68917 17.245H8.01267L7.8225 19.2435L6.125 19.7125L4.40125 19.24L4.29158 18.0092H2.76967L2.96217 20.4422L6.125 21.2881L9.26275 20.4463L9.69675 15.6881H4.10142V15.6875Z"></path><path d="M11 0L23.25 0L22.1358 12.5784L17.1116 14L12.1153 12.5778L11 0ZM20.9692 2.57425L13.2808 2.5725L13.4051 4.102L19.3113 4.10317L19.1626 5.6875L15.2892 5.6875L15.4293 7.18842L19.0354 7.18842L18.8219 9.2435L17.1244 9.7125L15.4001 9.24L15.2904 8.00917H13.7679L13.9371 10.2579L17.125 11.2513L20.2592 10.3588L20.9692 2.57483V2.57425Z"></path></g><defs><clipPath id="clip0_18_5008"><rect width="24" height="24" fill="white"></rect></clipPath></defs></svg>