<svg width="24" height="24" viewBox="0 0 24 24" fill="#DDDDDD" xmlns="http://www.w3.org/2000/svg"><path d="M0.73875 19.227C0.73875 19.227 1.05525 16.1047 3.27 12.4117C5.4855 8.71872 9.2625 5.92422 12.3323 5.64897C18.4403 5.03697 23.9272 10.5127 23.9272 10.5127C23.9272 10.5127 23.7472 10.6387 23.5568 10.7977C17.565 6.36747 13.905 8.45547 12.7537 9.01497C7.479 11.9587 9.07125 19.227 9.07125 19.227H0.74025H0.73875ZM18.1027 6.23997C17.7652 6.10347 17.4277 5.97747 17.0798 5.86122L17.1217 5.16372C17.7855 5.35422 18.0495 5.48097 18.144 5.53347L18.102 6.24072L18.1027 6.23997ZM17.1 8.47797C17.4375 8.49897 17.7863 8.54097 18.1448 8.61522L18.1027 9.26922C17.7547 9.19422 17.4067 9.15297 17.0588 9.14172L17.1007 8.47797H17.1ZM13.1978 5.18472C12.8925 5.18472 12.5865 5.19597 12.2805 5.22822L12.0795 4.60572C12.4283 4.56372 12.7657 4.54272 13.092 4.54272L13.3035 5.18622H13.1985L13.1978 5.18472ZM13.7048 9.06822C13.9673 8.95272 14.2747 8.83572 14.6325 8.73072L14.865 9.42822C14.5575 9.52197 14.2522 9.64872 13.9462 9.79572L13.704 9.06822H13.7048ZM8.91525 6.29322C8.64075 6.43122 8.37675 6.58947 8.103 6.75822L7.61775 6.01947C7.90275 5.85072 8.1765 5.70447 8.4405 5.56647L8.91525 6.29397V6.29322ZM11.0775 11.0407C11.2665 10.7985 11.4885 10.5562 11.73 10.3342L12.2055 11.052C11.973 11.2942 11.763 11.5372 11.583 11.802L11.0775 11.04V11.0407ZM9.5475 14.4382C9.6315 14.0587 9.7275 13.668 9.864 13.278L10.623 13.8795C10.518 14.2905 10.443 14.7022 10.4018 15.1132L9.54675 14.4382H9.5475ZM4.9275 9.42747C4.6725 9.68997 4.431 9.97497 4.209 10.26L3.3975 9.56397C3.63975 9.29997 3.903 9.03597 4.1775 8.77272L4.9275 9.42672V9.42747ZM1.74 14.142C1.572 14.532 1.35 15.0495 1.2135 15.408L0 14.9655C0.105 14.6805 0.327 14.1525 0.52725 13.698L1.74075 14.142H1.74ZM9.39 17.1172L10.5285 17.5282C10.5915 18.0255 10.686 18.4882 10.7812 18.9007L9.51525 18.447C9.46275 18.1305 9.41025 17.6767 9.38925 17.118L9.39 17.1172Z"></path></svg>