<svg width="16" height="16" viewBox="0 0 20 20" fill="#FF2424" xmlns="http://www.w3.org/2000/svg"><path d="M15.4373 2.00667C17.4593 2.35667 18.0327 3.73867 17.99 5.18667L18 5.166L17.09 17.0913L5.25998 17.902H5.27065C4.28865 17.8607 2.09998 17.7707 1.99998 14.7107L3.09665 12.7107L4.97599 17.1013L5.31132 17.8827L7.18132 11.7867L7.16132 11.7913L7.17198 11.7713L13.342 13.742L12.4113 10.1213L11.7513 7.52133L17.6313 7.142L17.2213 6.802L13 3.36067L15.4393 2L15.4373 2.00667ZM1.99998 14.6773V14.6947V14.6753V14.6773ZM5.41998 5.33333C7.79398 2.978 10.858 1.586 12.0347 2.77333C13.2093 3.958 11.9647 6.84333 9.58598 9.19733C7.21065 11.552 4.18398 13.02 3.00998 11.8353C1.83265 10.6507 3.03998 7.69067 5.41798 5.33533L5.41998 5.33333Z"></path></svg>